<svg width="94" height="96" viewBox="0 0 94 96" fill="none" xmlns="http://www.w3.org/2000/svg">
<g clip-path="url(#clip0_1_76)">
<path d="M40.0165 95.9932L38.6928 95.7557L39.1179 93.3562L36.8283 95.4195L35.2468 95.1354L38.2025 92.4718L36.2433 88.1553L37.7995 88.4352L39.3746 91.9078L39.9229 88.818L41.2465 89.0555L40.0165 95.9932ZM30.1941 91.5536L28.9662 91.1348L30.6245 86.1979L31.8524 86.6168L31.6757 87.1416C31.9934 86.9942 32.2891 86.9126 32.5648 86.8935C32.8404 86.8755 33.1203 86.9147 33.4023 87.0101C34.0379 87.2265 34.5029 87.6601 34.7997 88.3122C35.0974 88.9632 35.1216 89.6556 34.8754 90.3883C34.6208 91.1496 34.1873 91.6957 33.5749 92.0297C32.9646 92.3616 32.3396 92.4199 31.6999 92.2015C31.4052 92.1007 31.1474 91.9512 30.9265 91.753C30.7055 91.5547 30.5224 91.3066 30.3762 91.0107L30.1941 91.5536ZM31.8282 90.981C32.2102 91.1115 32.5721 91.085 32.9141 90.8994C33.2571 90.7149 33.4991 90.4116 33.6422 89.9886C33.7853 89.5623 33.7748 89.1679 33.6107 88.8053C33.4455 88.4426 33.1772 88.1977 32.8015 88.0694C32.4154 87.9379 32.0481 87.9634 31.7041 88.1479C31.3579 88.3302 31.1106 88.6409 30.9633 89.0799C30.8192 89.5093 30.8307 89.8995 30.9959 90.2537C31.1611 90.6046 31.4389 90.8485 31.8282 90.981ZM27.6836 87.1533L27.2627 87.9835L27.0333 87.8658C26.8786 87.7852 26.7261 87.7524 26.5724 87.7672C26.4199 87.7799 26.302 87.8679 26.2178 88.0323C26.1463 88.1744 26.14 88.3175 26.1958 88.4617C26.2526 88.607 26.3578 88.7183 26.5083 88.7957C26.6966 88.8933 26.9818 88.9251 27.3627 88.888L27.4047 89.9239C26.845 90.0384 26.321 89.9674 25.8327 89.715C25.3824 89.4839 25.0709 89.1753 24.8931 88.7883C24.7174 88.4013 24.73 88.0111 24.9321 87.6135C25.1372 87.2095 25.5181 86.9942 26.0758 86.9688C25.6076 86.4588 25.516 85.9254 25.7991 85.3698C26.0085 84.9563 26.3441 84.6955 26.805 84.5894C27.2658 84.4834 27.7793 84.5778 28.3486 84.8715C28.9736 85.1938 29.3997 85.637 29.627 86.199L28.5822 86.6814C28.4128 86.3337 28.2023 86.0972 27.954 85.9689C27.7562 85.8671 27.5741 85.8332 27.4089 85.8682C27.2438 85.9021 27.1227 85.9944 27.047 86.1449C26.9733 86.2881 26.9649 86.4418 27.0186 86.6062C27.0722 86.7694 27.1932 86.9009 27.3837 86.9985L27.6836 87.1533ZM19.3995 85.6169L18.3431 84.8598L21.3409 80.6122L22.3973 81.3692L22.0785 81.8209C22.4236 81.7722 22.7308 81.7796 23.0002 81.8421C23.2685 81.9047 23.5263 82.0224 23.7683 82.1963C24.3155 82.5876 24.6374 83.1368 24.7353 83.8483C24.8353 84.5576 24.6606 85.2277 24.2155 85.8586C23.7536 86.5129 23.1822 86.9105 22.5015 87.0536C21.8217 87.1946 21.2072 87.0695 20.6559 86.674C20.4023 86.4916 20.1992 86.2743 20.0435 86.0209C19.8878 85.7664 19.7847 85.4759 19.7289 85.1503L19.3995 85.6169ZM21.1283 85.5427C21.4566 85.7781 21.8102 85.8576 22.1911 85.7791C22.572 85.7028 22.8908 85.4812 23.1486 85.1175C23.4064 84.7506 23.5095 84.371 23.4558 83.9755C23.4011 83.5811 23.2138 83.2672 22.8908 83.0361C22.5583 82.7986 22.2005 82.7159 21.8175 82.7922C21.4335 82.8675 21.1083 83.0933 20.8421 83.4708C20.5812 83.8409 20.4802 84.2183 20.538 84.6043C20.5959 84.9892 20.7927 85.303 21.1283 85.5427ZM17.0447 83.932L15.9525 82.8823L16.184 81.1434L14.4752 81.4626L13.3978 80.4277L16.3534 79.8753L16.8048 76.5003L17.897 77.55L17.6171 79.6388L19.671 79.2539L20.7474 80.2888L17.4488 80.9069L17.0447 83.932ZM9.92758 74.861L11.084 75.2915C11.0555 75.5863 11.0766 75.8354 11.1439 76.0412C11.2102 76.2458 11.3323 76.4504 11.5069 76.6529C11.8247 77.023 12.1909 77.2266 12.6033 77.2648C13.019 77.3029 13.3957 77.1736 13.7366 76.8767C14.068 76.5872 14.2437 76.2415 14.2648 75.8397C14.2858 75.4357 14.1417 75.0561 13.8344 74.6988C13.4546 74.2577 13.0095 74.0435 12.4981 74.0583L12.3592 72.8167C13.2673 72.7648 14.0522 73.1232 14.7151 73.894C15.3117 74.5875 15.5748 75.3085 15.5053 76.056C15.4359 76.8025 15.1307 77.4132 14.5857 77.8893C14.208 78.219 13.7787 78.4269 13.2967 78.5138C12.8148 78.5997 12.3361 78.552 11.8594 78.3675C11.3838 78.1841 10.9651 77.8819 10.601 77.4588C10.2632 77.0665 10.0391 76.6477 9.92652 76.2002C9.81289 75.7538 9.81289 75.3074 9.92758 74.861ZM8.364 74.2937L5.76084 70.2009L6.80147 69.5287L7.73267 70.9919L11.0461 68.8511L11.7447 69.9517L8.43239 72.0915L9.40568 73.6204L8.364 74.2937ZM3.4786 65.2259L2.94513 64.0352L7.65797 61.888L8.19143 63.0777L7.69058 63.3067C8.01361 63.4393 8.27561 63.6015 8.47658 63.7923C8.67755 63.9832 8.84065 64.2154 8.96375 64.489C9.24049 65.105 9.24364 65.7423 8.97217 66.406C8.70386 67.0698 8.21774 67.5607 7.51907 67.8788C6.792 68.2096 6.09965 68.2637 5.43991 68.041C4.78228 67.8173 4.31405 67.3974 4.03627 66.7771C3.9079 66.4909 3.84161 66.1993 3.83424 65.9013C3.82583 65.6023 3.88265 65.298 3.99628 64.9894L3.4786 65.2259ZM5.00956 66.0381C5.17476 66.4092 5.44096 66.6573 5.80924 66.7824C6.17646 66.9097 6.56367 66.8811 6.96666 66.6966C7.37387 66.5121 7.6527 66.2353 7.80422 65.8663C7.95364 65.4984 7.94837 65.1326 7.78528 64.7689C7.61798 64.3946 7.34862 64.1412 6.97929 64.0129C6.61102 63.8825 6.21644 63.9132 5.79766 64.1041C5.38835 64.2907 5.11268 64.5653 4.96958 64.929C4.82648 65.2906 4.84015 65.6617 5.00956 66.0381ZM3.75112 60.2678L3.2187 58.3784L1.4289 58.8916L1.07536 57.6351L6.05019 56.2111L6.40479 57.4675L4.34351 58.0571L4.87593 59.9466L6.9372 59.357L7.29074 60.6135L2.31591 62.0365L1.96131 60.78L3.75112 60.2678ZM1.10271 50.3623L1.82874 51.3665C1.6425 51.5966 1.5236 51.815 1.46572 52.0228C1.40891 52.2317 1.39733 52.4692 1.431 52.7353C1.49203 53.221 1.68564 53.5953 2.00761 53.8582C2.33274 54.1212 2.7168 54.224 3.16504 54.1668C3.5996 54.1106 3.93526 53.9218 4.17516 53.5984C4.41401 53.274 4.50345 52.8785 4.44347 52.4098C4.37087 51.8298 4.11729 51.4036 3.68378 51.129L4.25092 50.0188C5.03586 50.4822 5.49147 51.2191 5.61879 52.2306C5.73453 53.1414 5.55671 53.889 5.08847 54.4721C4.62024 55.0543 4.0289 55.3925 3.31445 55.4837C2.81886 55.5473 2.34747 55.4805 1.89818 55.2843C1.44889 55.0861 1.07641 54.7786 0.78179 54.3597C0.487172 53.942 0.30514 53.4553 0.234642 52.9008C0.169405 52.3854 0.213598 51.9115 0.364064 51.4757C0.515582 51.041 0.761798 50.6698 1.10271 50.3623ZM0 48.5185L0.0326184 47.2121L1.96868 47.262L0.0778633 45.3979L0.117847 43.8032L2.57159 46.2017L5.28945 43.905L5.24631 45.645L3.3839 47.157L3.53963 47.3023L5.20317 47.3447L5.17055 48.6499L0 48.5185ZM0.837557 38.6458L1.06589 37.3597L6.15752 38.2768L5.92919 39.5619L5.3873 39.4644C5.57986 39.7592 5.70402 40.0423 5.76294 40.3137C5.82186 40.5852 5.82607 40.8704 5.77451 41.1651C5.65667 41.831 5.30102 42.3591 4.70442 42.7514C4.11097 43.1448 3.4344 43.2731 2.67892 43.1373C1.89397 42.9963 1.29316 42.6453 0.874384 42.0855C0.45771 41.5267 0.307245 40.9128 0.426144 40.2427C0.480859 39.9331 0.589236 39.6553 0.751276 39.405C0.912264 39.1548 1.12902 38.9364 1.39733 38.7466L0.837557 38.6458ZM1.6425 40.1886C1.572 40.5883 1.65197 40.9457 1.88556 41.2585C2.11704 41.5734 2.45164 41.7695 2.88726 41.848C3.32708 41.9265 3.71219 41.8586 4.04363 41.6402C4.37508 41.4217 4.575 41.1174 4.6455 40.7241C4.71705 40.3201 4.63708 39.9585 4.40454 39.6415C4.17411 39.3244 3.83214 39.1251 3.37969 39.0434C2.93671 38.9639 2.55476 39.0328 2.23278 39.2513C1.91186 39.4676 1.7151 39.7814 1.6425 40.1886ZM4.6739 35.5561C4.50766 35.8031 4.27828 35.9781 3.9826 36.083C3.68904 36.188 3.38811 36.1954 3.08086 36.1074C2.71154 36.0014 2.41797 35.8042 2.20227 35.5126C1.98341 35.2199 1.88029 34.9167 1.88976 34.6007C1.89923 34.2858 1.99288 33.8171 2.1686 33.1915L2.52845 31.917L7.50329 33.34L7.14975 34.5965L5.35047 34.0822L5.28208 34.3261L6.74255 36.0427L6.32166 37.5367L4.6739 35.5561ZM4.41401 33.814L3.21449 33.4704L3.08928 33.9115C2.9546 34.3918 3.08507 34.6898 3.48281 34.8032C3.88475 34.9177 4.16148 34.7089 4.313 34.1713L4.41401 33.814ZM4.04468 24.024L4.71389 22.8513L12.1183 24.0113L11.428 25.2222L9.90653 24.9741L8.47763 27.4807L9.44882 28.6926L8.75752 29.9035L4.04468 24.024ZM5.99127 24.3697L7.60641 26.4076L8.54918 24.7546L5.99127 24.3697ZM12.5349 16.6983L12.335 17.924C12.0415 17.9516 11.8037 18.0194 11.6153 18.1244C11.428 18.2304 11.2523 18.3895 11.0882 18.6005C10.7883 18.9854 10.6589 19.3862 10.6999 19.8018C10.7409 20.2207 10.9387 20.5685 11.2933 20.8494C11.6385 21.1219 12.0088 21.2301 12.4045 21.175C12.8012 21.1188 13.1431 20.9046 13.4335 20.5335C13.7923 20.0743 13.9154 19.593 13.805 19.0882L14.9876 18.7161C15.2107 19.6046 15.0108 20.4497 14.3847 21.2513C13.8218 21.9734 13.1694 22.3699 12.4287 22.4431C11.6879 22.5173 11.0345 22.3296 10.4684 21.8811C10.0749 21.5694 9.79079 21.1845 9.61507 20.7243C9.4404 20.2631 9.39516 19.7806 9.4846 19.2749C9.57298 18.7691 9.78868 18.2972 10.1317 17.8572C10.4505 17.449 10.8156 17.1479 11.2292 16.9506C11.6427 16.7534 12.0783 16.6697 12.5349 16.6983ZM17.4182 11.8823L17.0458 13.0667C16.7532 13.0529 16.507 13.0858 16.3071 13.1632C16.1061 13.2406 15.9104 13.3721 15.7168 13.5576C15.3654 13.8948 15.1812 14.2733 15.1634 14.6911C15.1444 15.111 15.2907 15.4832 15.6021 15.8129C15.9052 16.1321 16.2566 16.2922 16.6554 16.2954C17.0563 16.2964 17.4256 16.1342 17.7655 15.8076C18.1853 15.4047 18.3747 14.9456 18.3368 14.4313L19.5605 14.232C19.6552 15.1439 19.3375 15.9508 18.6051 16.6548C17.9454 17.2889 17.2436 17.5879 16.5007 17.554C15.7568 17.52 15.1371 17.2412 14.6394 16.7163C14.2942 16.3516 14.068 15.9296 13.9586 15.4482C13.8502 14.9668 13.8744 14.4822 14.0343 13.9945C14.1932 13.5078 14.4731 13.0709 14.8751 12.685C15.2486 12.3266 15.6526 12.0806 16.0893 11.9449C16.527 11.8092 16.97 11.789 17.4182 11.8823ZM20.1277 8.41296C20.5254 8.12773 20.9705 7.95914 21.4629 7.90825C21.9564 7.85523 22.4194 7.93051 22.8582 8.13198C23.298 8.3345 23.6568 8.6335 23.9377 9.03113C24.2197 9.43087 24.3839 9.87514 24.4323 10.3639C24.4796 10.8549 24.4007 11.3204 24.1976 11.7614C23.9935 12.2025 23.6873 12.5705 23.2748 12.8663C22.6688 13.3 21.9995 13.4548 21.2672 13.3297C20.5317 13.2035 19.9467 12.8313 19.5121 12.2142C19.0439 11.5515 18.8966 10.8262 19.0702 10.0384C19.2238 9.34922 19.5753 8.80846 20.1277 8.41296ZM20.8484 9.40118C20.5191 9.63763 20.3255 9.9483 20.2697 10.3343C20.214 10.7213 20.3108 11.0934 20.5643 11.4529C20.8232 11.8208 21.1431 12.0414 21.5197 12.1145C21.8964 12.1877 22.251 12.106 22.5835 11.8685C22.9139 11.631 23.1075 11.3172 23.1664 10.9291C23.2233 10.541 23.1233 10.1646 22.8676 9.80198C22.6109 9.43829 22.2942 9.22092 21.9164 9.14776C21.5418 9.07566 21.1851 9.16048 20.8484 9.40118ZM26.402 10.6969L24.045 6.05799L25.1983 5.46315L26.987 8.98341L28.7221 8.0885L26.9334 4.56824L28.0866 3.97234L29.8753 7.49366L31.0464 6.88928L32.0281 8.82012L30.9265 9.38845L30.513 8.57625L26.402 10.6969ZM33.0109 7.69618L32.3575 7.91885L30.7003 2.98201L31.8998 2.57272L32.8731 5.4727L34.4114 1.71705L35.0017 1.51559L36.6589 6.45243L35.4594 6.86171L34.5061 4.02112L33.0109 7.69618ZM40.8235 0.434061L42.0999 0.203971L43.009 5.33485L41.7326 5.56494L41.6358 5.01888C41.4286 5.30198 41.2086 5.51829 40.9761 5.66779C40.7436 5.8173 40.4795 5.92015 40.187 5.97317C39.5262 6.09192 38.9117 5.93818 38.3393 5.51087C37.7669 5.08568 37.4144 4.49084 37.2797 3.72953C37.1387 2.93853 37.2576 2.24827 37.6332 1.65979C38.0099 1.07131 38.5297 0.717166 39.1947 0.59735C39.5009 0.542213 39.7976 0.548575 40.087 0.614315C40.3753 0.681115 40.6541 0.810474 40.9235 0.99815L40.8235 0.434061ZM39.6651 1.72871C39.2694 1.80081 38.9643 2.00015 38.7538 2.32885C38.5413 2.65649 38.474 3.04032 38.5518 3.48036C38.6307 3.92251 38.8275 4.26287 39.1453 4.50144C39.463 4.73895 39.8166 4.82272 40.2059 4.75274C40.6078 4.68064 40.9172 4.48024 41.1308 4.15154C41.3465 3.82284 41.4138 3.43052 41.3339 2.97458C41.2539 2.52819 41.0571 2.19207 40.7425 1.96198C40.43 1.73401 40.0702 1.65661 39.6651 1.72871ZM44.3316 5.21822L44.4631 0.0078125L45.7584 0.0406824L45.6595 3.99567L47.6071 4.04445L47.7071 0.0905174L49.0023 0.123387L48.9034 4.07838L50.2187 4.11125L50.164 6.28066L48.9266 6.24885L48.9497 5.33591L44.3316 5.21822ZM51.5782 5.54798L50.8932 5.46103L51.5455 0.289857L52.8019 0.451026L52.4189 3.48778L55.4324 0.787147L56.05 0.866671L55.3987 6.03678L54.1413 5.87668L54.517 2.90142L51.5782 5.54798ZM58.0955 4.59051C57.8504 4.42298 57.6757 4.19183 57.5726 3.89494C57.4684 3.59805 57.461 3.2948 57.5484 2.98519C57.6525 2.61302 57.8493 2.31719 58.1387 2.09982C58.4291 1.87927 58.73 1.77536 59.0425 1.78491C59.3561 1.79445 59.8211 1.88882 60.4409 2.06589L61.7067 2.42852L60.2936 7.44277L59.0467 7.08544L59.5581 5.27229L59.3161 5.20337L57.6126 6.6751L56.13 6.25097L58.0955 4.59051ZM59.8243 4.32861L60.1652 3.11985L59.7275 2.99473C59.2509 2.85795 58.9552 2.98943 58.8426 3.39129C58.7279 3.79527 58.9362 4.07413 59.4697 4.22682L59.8243 4.32861ZM68.323 3.08698L69.4425 3.73483L68.4229 8.81482L72.274 5.37621L73.3904 6.023L70.9209 12.721L69.8076 12.0764L71.3618 7.84251L67.8758 10.9567L66.8562 10.3661L67.779 5.7664L64.917 9.24213L63.7901 8.59003L68.323 3.08698ZM77.051 15.0262L73.9018 12.2768C73.7061 12.597 73.6356 12.9267 73.6882 13.266C73.7419 13.6032 73.9228 13.9054 74.2269 14.1715C74.5931 14.4907 75.0171 14.6338 75.5032 14.6031L75.9894 15.7133C75.5317 15.8288 75.0971 15.8309 74.6888 15.7239C74.2806 15.6136 73.8797 15.3877 73.4862 15.0431C72.8738 14.5098 72.5423 13.881 72.4929 13.1558C72.4424 12.4316 72.6696 11.7763 73.1715 11.1921C73.6871 10.5919 74.3079 10.2622 75.0329 10.2017C75.7589 10.1402 76.4092 10.3618 76.99 10.8697C77.6056 11.4062 77.937 12.0414 77.9822 12.7719C78.0275 13.5046 77.7729 14.1928 77.2152 14.8427L77.051 15.0262ZM76.7385 13.4018C76.8585 13.1303 76.8816 12.843 76.8069 12.5429C76.7312 12.2407 76.5681 11.9809 76.3145 11.7593C76.0409 11.5208 75.7368 11.3872 75.398 11.3585C75.1886 11.3394 74.9245 11.402 74.6089 11.5441L76.7385 13.4018ZM76.8627 17.9166L76.1861 18.5072L75.4264 17.6239L76.9353 16.307L77.4446 16.8987L81.6976 15.5807L82.2458 16.219L80.3518 20.28L80.8727 20.8865L79.3627 22.2035L78.5525 21.2608L79.2302 20.6702L76.8627 17.9166ZM79.4469 19.2293L80.5423 17.1404L78.3084 17.9039L79.4469 19.2293ZM80.9368 22.8407L80.5644 22.2554L84.9184 19.4424L85.6023 20.5165L83.0455 22.1685L87.0323 22.7654L87.369 23.2945L83.015 26.1076L82.331 25.0324L84.8363 23.4143L80.9368 22.8407ZM83.7315 27.222L88.4443 25.0748L88.9778 26.2645L85.4014 27.8942L86.2042 29.684L89.7806 28.0543L90.3152 29.245L86.7387 30.8737L87.2806 32.0825L85.3193 32.9763L84.809 31.8396L85.6339 31.4632L83.7315 27.222ZM86.5693 33.9518L86.381 33.2827L91.3558 31.8587L91.702 33.0866L88.78 33.9232L92.4269 35.6568L92.5974 36.2612L87.6215 37.6852L87.2753 36.4573L90.1384 35.6377L86.5693 33.9518ZM91.4158 39.8408L91.6609 41.7897L93.5065 41.5532L93.6696 42.8489L88.539 43.5053L88.3759 42.2096L90.5014 41.9381L90.2562 39.9893L88.1297 40.2618L87.9666 38.966L93.0983 38.3097L93.2614 39.6054L91.4158 39.8408ZM92.8804 49.8205L92.2596 48.7475C92.4669 48.5375 92.6079 48.3329 92.6858 48.1314C92.7636 47.93 92.7984 47.6946 92.7921 47.4263C92.7794 46.9365 92.6248 46.5441 92.3301 46.2504C92.0334 45.9557 91.6609 45.8146 91.2106 45.8263C90.7718 45.8369 90.4183 45.9917 90.1489 46.2886C89.8785 46.5866 89.7501 46.9715 89.7617 47.4444C89.7764 48.0286 89.9858 48.4782 90.3899 48.7952L89.7144 49.8428C88.9799 49.301 88.6001 48.5216 88.5748 47.5027C88.5517 46.5844 88.8031 45.8592 89.3271 45.3269C89.8511 44.7946 90.4719 44.5189 91.1927 44.4998C91.6925 44.4871 92.1555 44.6016 92.5827 44.8423C93.0088 45.0862 93.3487 45.4287 93.6002 45.8761C93.8516 46.3215 93.9842 46.8241 93.9989 47.3839C94.0116 47.9024 93.9211 48.37 93.7264 48.7878C93.5328 49.2045 93.2508 49.5491 92.8804 49.8205ZM93.6822 51.7609L93.5191 53.0566L91.5978 52.8106L93.2919 54.8581L93.093 56.4412L90.8918 53.8052L87.9582 55.8134L88.176 54.0872L90.1794 52.7714L90.0384 52.6113L88.3886 52.4003L88.5517 51.1046L93.6822 51.7609ZM92.2481 60.1512C92.1144 60.6252 91.8724 61.0376 91.5199 61.3875C91.1685 61.7396 90.7592 61.9728 90.292 62.0927C89.8227 62.2114 89.3577 62.2051 88.8926 62.0714C88.4233 61.9379 88.0192 61.694 87.6783 61.343C87.3374 60.9899 87.1091 60.5775 86.9944 60.1056C86.8797 59.6327 86.8902 59.1524 87.0281 58.6625C87.2311 57.9415 87.6583 57.3986 88.3065 57.0339C88.9578 56.6691 89.646 56.5907 90.3688 56.7974C91.1443 57.0201 91.7104 57.493 92.065 58.2172C92.3722 58.8513 92.4333 59.4949 92.2481 60.1512ZM91.0717 59.8352C91.1822 59.4429 91.1401 59.0792 90.9444 58.742C90.7476 58.4049 90.4404 58.1758 90.0205 58.056C89.5902 57.932 89.204 57.9617 88.8642 58.1419C88.5254 58.3222 88.2991 58.6095 88.1876 59.005C88.0761 59.3984 88.1203 59.7642 88.316 60.1046C88.5127 60.4428 88.8242 60.6739 89.2482 60.7948C89.6744 60.9168 90.0563 60.8871 90.3962 60.7068C90.7339 60.5266 90.9591 60.235 91.0717 59.8352ZM90.775 64.244L89.667 67.0762L88.5169 66.6192L89.1493 65.0022L85.4876 63.5474L85.9632 62.3323L90.775 64.244ZM87.8593 70.7576C87.6163 71.1849 87.2806 71.5253 86.8555 71.7787C86.4294 72.0342 85.9759 72.1604 85.494 72.1625C85.0099 72.1636 84.5606 72.0427 84.1408 71.7999C83.7189 71.5549 83.3853 71.2209 83.1391 70.7957C82.8929 70.3706 82.7708 69.9146 82.7729 69.429C82.7761 68.9413 82.9013 68.4779 83.1538 68.0368C83.5242 67.3868 84.0682 66.9648 84.7858 66.7697C85.5055 66.5746 86.1916 66.6669 86.8429 67.0443C87.5426 67.4494 87.9772 68.0463 88.1466 68.8363C88.2918 69.5266 88.1971 70.1659 87.8593 70.7576ZM86.7945 70.1627C86.9955 69.8097 87.0428 69.446 86.9334 69.0717C86.8239 68.6963 86.5809 68.3994 86.2031 68.1799C85.8149 67.9552 85.4329 67.8884 85.0594 67.9806C84.6869 68.0718 84.3986 68.2955 84.1955 68.6518C83.9935 69.007 83.9472 69.3728 84.0556 69.7503C84.165 70.1277 84.4112 70.4268 84.7942 70.6484C85.1783 70.871 85.556 70.9347 85.9285 70.8435C86.2999 70.7512 86.5882 70.5232 86.7945 70.1627ZM85.2751 77.7695L82.7424 80.7161L81.7481 79.8487L82.5835 78.8764L78.2916 75.1293L79.1786 74.0986L83.4706 77.8447L84.2808 76.9011L85.2751 77.7695ZM80.919 80.029L79.9551 80.9547L76.7501 79.5254L77.9107 82.9194L76.949 83.843L74.4184 76.4419L75.3801 75.5184L76.1861 77.9062L80.919 80.029ZM74.6825 85.4875L74.3532 85.021C74.2964 85.3465 74.1911 85.6392 74.0354 85.8926C73.8797 86.147 73.6756 86.3655 73.423 86.5468C72.8738 86.9402 72.2582 87.0663 71.5785 86.9243C70.8977 86.7822 70.3285 86.3835 69.8666 85.7293C69.4215 85.0984 69.2468 84.4283 69.3468 83.7189C69.4436 83.0085 69.7645 82.4593 70.3106 82.068C70.5526 81.8941 70.8104 81.7764 71.0798 81.7139C71.3502 81.6502 71.6595 81.6439 72.0057 81.6948L70.5894 79.6876L71.6459 78.9316L75.7379 84.7305L74.6825 85.4875ZM72.958 85.4101C73.2894 85.1726 73.4862 84.8598 73.543 84.4749C73.6009 84.0879 73.4998 83.7104 73.2399 83.3414C72.9737 82.964 72.6486 82.7371 72.2645 82.6628C71.8815 82.5865 71.5227 82.6681 71.1913 82.9067C70.8683 83.1379 70.6799 83.4507 70.6252 83.8451C70.5726 84.2417 70.6747 84.6212 70.9335 84.9881C71.1902 85.3518 71.5101 85.5724 71.89 85.6498C72.2709 85.7282 72.6265 85.6476 72.958 85.4101ZM66.7699 84.3869L67.3844 84.0699L69.7424 88.7088L68.6144 89.2909L67.2297 86.5659L66.2554 90.5081L65.6998 90.7944L63.3418 86.1555L64.4698 85.5734L65.8261 88.2433L66.7699 84.3869ZM61.9824 88.9707L62.2791 89.8539L62.036 89.9366C61.8719 89.9928 61.7414 90.0798 61.6446 90.2017C61.5478 90.3205 61.5289 90.4668 61.5878 90.6428C61.6383 90.7923 61.7351 90.8973 61.8772 90.9577C62.0203 91.0182 62.1718 91.0192 62.3317 90.9651C62.5337 90.8962 62.7547 90.7128 62.9935 90.4116L63.7606 91.103C63.4513 91.5865 63.0356 91.9173 62.5159 92.0944C62.0371 92.2577 61.6004 92.2683 61.2006 92.1262C60.8029 91.9841 60.5345 91.7021 60.3925 91.28C60.2483 90.8506 60.3609 90.4254 60.7303 90.0034C60.0411 89.9865 59.5981 89.6811 59.3992 89.0894C59.2519 88.6494 59.2992 88.2253 59.5455 87.8192C59.7906 87.412 60.2168 87.1066 60.8228 86.8999C61.4868 86.673 62.0992 86.673 62.6579 86.9009L62.2738 87.992C61.9077 87.8732 61.5931 87.8595 61.3279 87.9496C61.1175 88.0217 60.967 88.1298 60.8755 88.274C60.785 88.4172 60.7671 88.5677 60.8207 88.7279C60.8723 88.8805 60.9754 88.994 61.1301 89.0693C61.2837 89.1446 61.4615 89.1488 61.6625 89.0799L61.9824 88.9707ZM55.1704 90.559L54.1676 94.0782L53.3248 94.2299L51.1467 89.3269L52.3968 89.1022L53.6131 91.9905L54.6011 88.7056L55.1262 88.6112L57.1433 91.3575L57.2958 88.221L58.5427 87.9962L58.1776 93.3562L57.3348 93.5078L55.1704 90.559ZM46.7233 94.6423L45.428 94.6752L45.2975 89.4648L46.5928 89.4319L46.6065 89.9865C46.8537 89.7383 47.1042 89.5581 47.3567 89.4457C47.6092 89.3322 47.8849 89.2718 48.1827 89.2644C48.8529 89.2464 49.438 89.4923 49.9399 90.0013C50.4418 90.5092 50.7006 91.1507 50.7206 91.9237C50.7406 92.7274 50.5207 93.3901 50.0609 93.916C49.6011 94.4398 49.0339 94.7112 48.3584 94.7282C48.0469 94.7367 47.7544 94.6847 47.4788 94.5755C47.2031 94.4674 46.9474 94.2967 46.7096 94.0697L46.7233 94.6423ZM48.0627 93.5385C48.4647 93.5279 48.7961 93.3774 49.0539 93.0836C49.3128 92.7931 49.4359 92.4231 49.4253 91.9767C49.4138 91.5271 49.2696 91.1602 48.9918 90.8761C48.713 90.594 48.3763 90.4572 47.9807 90.4668C47.5724 90.4774 47.2367 90.628 46.9758 90.9217C46.7138 91.2122 46.5886 91.5907 46.6002 92.0541C46.6117 92.5068 46.7559 92.8695 47.0316 93.1441C47.3072 93.4166 47.6513 93.5481 48.0627 93.5385Z" fill="#04061E"/>
<path fill-rule="evenodd" clip-rule="evenodd" d="M58.2018 32.5081C58.4775 32.0883 58.6385 31.7839 58.3133 31.4595C57.9808 31.1266 57.6115 31.2347 57.3895 31.6111C58.2092 31.3768 57.6536 32.874 56.9486 31.9324C56.674 31.5655 56.5288 30.8286 56.7277 30.3451C56.1868 29.9909 56.1279 29.57 55.6386 29.1098C54.6801 28.2128 53.5805 28.1619 52.7482 29.1374C52.0096 30.0016 51.7381 30.3896 51.1457 30.4002C51.534 30.7798 52.0864 30.7417 52.4599 30.7067C52.9608 31.346 53.1817 31.7384 54.1245 31.9366C54.9179 32.1042 55.2935 31.9854 56.1405 32.5421C56.1994 32.3258 55.9858 31.8656 55.8049 31.6154C55.4903 31.1817 55.2725 31.1615 54.8484 31.0587C55.1073 30.5105 54.9536 29.8902 54.2613 29.7195C54.2813 29.9464 54.3612 30.1935 54.0266 30.4564C53.3532 30.9855 52.3694 29.7365 53.5689 29.0133C54.5085 28.4471 55.9511 29.5647 55.6291 30.712C56.5898 31.363 56.0869 31.9663 56.7098 32.6736C57.2359 33.2684 58.2807 33.2175 59.0699 33.8717C59.1267 33.6554 59.0257 33.2504 58.9331 33.0638C58.7605 32.717 58.568 32.6205 58.2018 32.5081Z" fill="#04061E"/>
<path fill-rule="evenodd" clip-rule="evenodd" d="M37.3249 32.5081C37.0503 32.0883 36.8893 31.7839 37.2134 31.4595C37.547 31.1266 37.9152 31.2347 38.1373 31.6111C37.3176 31.3768 37.8731 32.874 38.5781 31.9324C38.8528 31.5655 38.999 30.8286 38.7991 30.3451C39.3399 29.9909 39.3988 29.57 39.8892 29.1098C40.8477 28.2128 41.9462 28.1619 42.7796 29.1374C43.5172 30.0016 43.7887 30.3896 44.3811 30.4002C43.9928 30.7798 43.4404 30.7417 43.0668 30.7067C42.567 31.346 42.345 31.7384 41.4023 31.9366C40.6099 32.1042 40.2343 31.9854 39.3873 32.5421C39.3273 32.3258 39.5409 31.8656 39.7219 31.6154C40.0375 31.1817 40.2553 31.1615 40.6783 31.0587C40.4195 30.5105 40.5731 29.8902 41.2665 29.7195C41.2455 29.9464 41.1655 30.1935 41.5001 30.4564C42.1746 30.9855 43.1573 29.7365 41.9578 29.0133C41.0182 28.4471 39.5767 29.5647 39.8976 30.712C38.9369 31.363 39.4399 31.9663 38.817 32.6736C38.2909 33.2684 37.246 33.2175 36.4579 33.8717C36.4001 33.6554 36.5021 33.2504 36.5947 33.0638C36.7662 32.717 36.9598 32.6205 37.3249 32.5081Z" fill="#04061E"/>
<path fill-rule="evenodd" clip-rule="evenodd" d="M51.0931 38.2245L51.0973 37.1155L48.7477 34.8686L49.3159 29.4207L51.2846 30.1227C51.6928 29.9975 51.9853 29.6095 52.5861 28.9043C53.0733 28.335 53.6499 28.1155 54.2371 28.2098L49.762 24.8794C50.0135 18.3446 47.7691 17.0786 47.7691 17.0786C47.7691 17.0786 45.6184 18.3998 45.8089 24.9313L41.5516 28.1886C42.0472 28.1886 42.527 28.4198 42.9406 28.9043C43.6055 29.6826 43.8917 30.0749 44.3747 30.1534L46.2287 29.4462L46.7506 34.8835L44.38 37.196L44.3716 38.2998C47.4861 37.898 47.9343 37.9351 51.0931 38.2245Z" fill="#04061E"/>
<path fill-rule="evenodd" clip-rule="evenodd" d="M65.1958 19.9011V23.4362V28.9054C65.1958 38.5765 57.3432 46.4907 47.745 46.4907C47.0758 46.4907 46.416 46.4515 45.7658 46.3762C43.9612 46.3158 44.0138 46.3455 42.1925 46.9891C39.8902 47.8024 37.285 48.4905 35.1101 49.4077C33.0951 50.257 31.6683 52.5017 33.0151 55.5321C34.5019 58.5635 37.4376 57.8552 39.5314 57.1607L53.6363 52.4656C64.0247 48.9846 67.9505 60.1741 62.7768 65.3824C61.0607 67.1108 53.4111 69.8485 50.1293 70.7795C50.1503 71.0106 50.1619 71.2449 50.1619 71.4814C50.1619 75.5912 46.8559 78.9227 42.7786 78.9227C38.7002 78.9227 35.3942 75.5912 35.3942 71.4814C35.3942 67.3716 38.7002 64.0401 42.7786 64.0401C45.3081 64.0401 47.5398 65.322 48.8708 67.2762C51.6129 66.4523 59.4287 63.5947 60.3315 62.7232C62.0455 61.3808 61.8077 58.256 60.2799 56.7143C58.4564 54.8747 56.3846 55.4292 53.9151 56.2573C49.6926 57.6707 45.4501 59.0513 41.2655 60.4795C34.5692 62.7634 28.2444 59.9504 28.8579 52.6098C29.3261 47.0061 34.6597 45.3191 39.079 44.1538C33.839 41.1096 30.2931 35.4051 30.2931 28.9054V23.4362V19.9011H33.8011H37.185V23.4362H33.8011V28.8937C33.8011 36.6213 40.0754 42.945 47.745 42.945C55.4135 42.945 61.6888 36.6213 61.6888 28.8937V23.4362H58.3039V19.9011H61.6888H65.1958ZM42.7786 67.6112C44.8998 67.6112 46.6191 69.3438 46.6191 71.4814C46.6191 73.619 44.8998 75.3516 42.7786 75.3516C40.6573 75.3516 38.938 73.619 38.938 71.4814C38.938 69.3438 40.6573 67.6112 42.7786 67.6112Z" fill="#04061E"/>
</g>
<defs>
<clipPath id="clip0_1_76">
<rect width="94" height="96" fill="white"/>
</clipPath>
</defs>
</svg>
